<svg width="94" height="76" viewBox="0 0 94 76" fill="none" xmlns="http://www.w3.org/2000/svg">
<path d="M9.52437 36.302L0 53.2677L9.52437 70.1135H30.7523L40.3528 52.9682L30.7523 36.302H9.52437Z" fill="#380955"/>
<path d="M9.52437 0.0917969L0 17.0575L9.55484 33.9033H30.7523L40.3528 16.758L30.7523 0.0917969H9.52437Z" fill="#380955"/>
<path d="M42.7709 17.0125L33.0332 34.2177L42.7404 50.824L63.7855 51.0636L73.386 33.9182L63.7855 17.252L42.7709 17.0125Z" fill="#380955"/>
<path d="M17.2203 35.1277L7.85742 51.99L17.2203 68.7332H38.0883L47.5261 51.6923L38.0883 35.1277H17.2203Z" fill="#D9A513"/>
<path d="M17.2203 0L7.85742 16.8623L17.2503 33.6055H38.0883L47.5261 16.5646L38.0883 0H17.2203Z" fill="#D9A513"/>
<path d="M49.9046 16.8176L40.332 33.918L49.8747 50.4231L70.5629 50.6612L80.0007 33.6204L70.5629 17.0558L49.9046 16.8176Z" fill="#D9A513"/>
<rect opacity="0.41" width="16.4894" height="1.31938" rx="0.659688" transform="matrix(0.469474 -0.882946 0.882949 0.469469 9.99609 16.397)" fill="#FECF00"/>
<rect opacity="0.41" width="16.4894" height="1.31938" rx="0.659688" transform="matrix(0.469474 -0.882946 0.882949 0.469469 43.0488 32.6946)" fill="#FECF00"/>
<rect opacity="0.41" width="16.4894" height="1.31938" rx="0.659688" transform="matrix(0.469474 -0.882946 0.882949 0.469469 9.99609 51.408)" fill="#FECF00"/>
<path d="M56.46 56.0283H59.04L56.24 70.0283H53.66L56.46 56.0283ZM46.42 70.0283H43.82L46.62 56.0283H49.22L46.42 70.0283ZM55.06 64.0283H47.44L47.86 61.8083H55.52L55.06 64.0283ZM60.0114 70.0283L62.8114 56.0283H65.4114L62.6114 70.0283H60.0114ZM70.4205 70.0283L67.1205 56.0283H69.8005L72.7405 68.6883H71.0805L79.1805 56.0283H81.8805L72.9805 70.0283H70.4205ZM84.5978 61.8483H91.5778L91.1578 63.9883H84.1778L84.5978 61.8483ZM83.5978 67.8483H91.5178L91.0778 70.0283H80.5778L83.3778 56.0283H93.5978L93.1578 58.2083H85.5178L83.5978 67.8483Z" fill="#380955"/>
</svg>
